<?xml version="1.0" encoding="utf-8"?>
<!-- Generator: Adobe Illustrator 27.9.0, SVG Export Plug-In . SVG Version: 6.00 Build 0)  -->
<svg version="1.1" id="Layer_1" xmlns="http://www.w3.org/2000/svg" xmlns:xlink="http://www.w3.org/1999/xlink" x="0px" y="0px"
	 width="30px" height="30px" viewBox="0 0 30 30" style="enable-background:new 0 0 30 30;" xml:space="preserve">
<style type="text/css">
	.st0{fill:#4285F4;}
	.st1{fill:#34A853;}
	.st2{fill:#FBBC05;}
	.st3{fill:#EB4335;}
</style>
<path class="st0" d="M29.7,15.3c0-1.2-0.1-2.1-0.3-3.1H15.3v5.6h8.3c-0.2,1.4-1.1,3.5-3.1,4.9l0,0.2l4.5,3.4l0.3,0
	C28.1,23.7,29.7,19.9,29.7,15.3"/>
<path class="st1" d="M15.3,30c4,0,7.4-1.3,9.9-3.6l-4.7-3.7c-1.3,0.9-3,1.5-5.2,1.5c-4,0-7.3-2.6-8.5-6.2l-0.2,0L2,21.6l-0.1,0.2
	C4.4,26.6,9.4,30,15.3,30"/>
<path class="st2" d="M6.8,18C6.4,17,6.3,16,6.3,15c0-1,0.2-2,0.5-3l0-0.2L2.1,8.2L1.9,8.3c-1,2-1.6,4.3-1.6,6.7s0.6,4.7,1.6,6.7
	L6.8,18"/>
<path class="st3" d="M15.3,5.8C18.1,5.8,20,7,21.1,8l4.2-4.1c-2.6-2.4-6-3.9-10-3.9C9.4,0,4.4,3.4,1.9,8.3L6.7,12
	C8,8.4,11.3,5.8,15.3,5.8"/>
</svg>
